#!OML:ASF H:\charlestonDancing\Project 1\Capture day 1\Session 1\femaleDancer.ASF
:FULLY-SPECIFIED
:DEGREES
364
root 2.78939 17.1074 -1.99697 -74.0471 -95.8923 83.4998
lowerback 13.8453 0.0303817 6.8162
upperback -0.26219 1.23152 1.81075
thorax -7.97635 0.331398 -2.16132
lowerneck 7.37276 -13.8325 -8.62466
upperneck -8.86218 -19.1669 4.44361
head -2.85899 -9.48938 3.59771
rclavicle -3.72721e-015 -2.38542e-014
rhumerus -31.0132 -3.40984 -75.3127
rradius 19.7513
rwrist 35.3876
rhand -14.1538 -33.9074
rfingers 7.12502
rthumb 11.9808 -63.5445
lclavicle -3.72721e-015 -2.38542e-014
lhumerus -31.1828 24.3905 13.1312
lradius 137.124
lwrist -0.370587
lhand 3.73113 9.19704
lfingers 7.12502
lthumb 29.159 36.9333
rfemur -3.53843 -4.74309 29.5474
rtibia 30.27
rfoot -26.8183 -2.43324
rtoes -17.5995
lfemur -42.3993 -1.5814 -17.2235
ltibia 65.8797
lfoot -5.67135 -9.20894
ltoes -14.5512
365
root 2.77126 17.1754 -2.00648 -70.2147 -95.6305 79.4736
lowerback 13.9979 -0.0591247 6.45329
upperback -0.071545 1.03976 1.58046
thorax -7.8725 0.256149 -2.16718
lowerneck 7.22232 -13.6226 -8.5228
upperneck -8.50812 -18.8541 4.40068
head -2.7453 -9.34178 3.53013
rclavicle -1.05853e-014 -2.10712e-014
rhumerus -29.777 1.12541 -78.0301
rradius 23.2108
rwrist 30.0325
rhand -15.1104 -34.6899
rfingers 7.12502
rthumb 11.0583 -64.3786
lclavicle -1.05853e-014 -2.10712e-014
lhumerus -32.2442 24.5087 12.4633
lradius 137.488
lwrist -0.180214
lhand 3.39926 9.22145
lfingers 7.12502
lthumb 28.842 37.0123
rfemur -2.96065 -4.62292 29.1475
rtibia 29.4921
rfoot -26.082 -2.17464
rtoes -17.3576
lfemur -42.147 -1.89455 -17.3837
ltibia 65.0804
lfoot -6.90047 -10.2691
ltoes -16.7559
366
root 2.72741 17.2612 -2.01552 -71.189 -95.299 80.1403
lowerback 14.091 -0.291089 6.20508
upperback 0.0979365 0.675452 1.37271
thorax -7.77121 0.0922222 -2.17687
lowerneck 7.39415 -13.6668 -9.07099
upperneck -8.0794 -18.8909 5.24875
head -2.48729 -9.39232 3.8569
rclavicle -6.4605e-016 -5.81445e-015
rhumerus -29.117 4.99624 -80.1255
rradius 27.1744
rwrist 24.5762
rhand -15.9939 -34.7291
rfingers 7.12502
rthumb 10.206 -64.4616
lclavicle -6.4605e-016 -5.81445e-015
lhumerus -33.1123 24.4257 12.2578
lradius 137.841
lwrist -0.151992
lhand 3.31566 9.2361
lfingers 7.12502
lthumb 28.7621 37.0405
rfemur -2.10235 -4.6106 28.8469
rtibia 28.4884
rfoot -25.0018 -2.12839
rtoes -17.5056
lfemur -41.4057 -2.64583 -17.55
ltibia 63.4371
lfoot -7.693 -11.8159
ltoes -15.8132
367
root 2.66182 17.3488 -2.02286 -76.1245 -94.9589 84.7331
lowerback 14.1011 -0.591065 6.054
upperback 0.168687 0.240099 1.20599
thorax -7.73578 -0.112459 -2.18156
lowerneck 7.33506 -13.7141 -9.28599
upperneck -7.09956 -18.9406 5.29492
head -2.11402 -9.43259 3.82569
rclavicle 2.28602e-015 -9.98893e-015
rhumerus -29.057 8.20346 -81.6609
rradius 31.4175
rwrist 20.0102
rhand -17.6869 -34.5072
rfingers 7.12502
rthumb 8.57251 -64.3132
lclavicle 2.28602e-015 -9.98893e-015
lhumerus -33.8064 24.1529 12.373
lradius 138.168
lwrist -0.148419
lhand 3.7265 9.16102
lfingers 7.12502
lthumb 29.1546 36.8981
rfemur -1.07246 -4.72039 28.6599
rtibia 27.3943
rfoot -23.5678 -2.59054
rtoes -19.1417
lfemur -40.3619 -3.56535 -17.8006
ltibia 61.1962
lfoot -8.56991 -13.2305
ltoes -13.7454
368
root 2.57489 17.434 -2.02295 -85.0921 -94.5083 93.3179
lowerback 13.9444 -0.864121 5.89759
upperback 0.262305 -0.174693 1.02033
thorax -7.58006 -0.303837 -2.20821
lowerneck 7.09976 -13.8524 -9.24189
upperneck -5.95455 -19.1068 4.86217
head -1.7232 -9.52163 3.58
rclavicle -5.76165e-015 4.70871e-015
rhumerus -29.304 10.8273 -82.6788
rradius 35.7617
rwrist 16.5101
rhand -19.8716 -32.6761
rfingers 7.12502
rthumb 6.46377 -62.5575
lclavicle -5.76165e-015 4.70871e-015
lhumerus -34.1422 23.738 12.9856
lradius 138.468
lwrist -0.2555
lhand 4.42184 8.97556
lfingers 7.12502
lthumb 29.8184 36.5956
rfemur 0.055836 -5.16179 28.2777
rtibia 26.4631
rfoot -22.0569 -2.96559
rtoes -20.5577
lfemur -39.0311 -4.63979 -18.3992
ltibia 58.6119
lfoot -9.79606 -14.2399
ltoes -13.5877
